HIERARCHY
ROOT Root
{
  OFFSET 0.0 0.0 0.0
  CHANNELS 6 Xposition Yposition Zposition Zrotation Yrotation Xrotation
  JOINT Hips
  {
    OFFSET 0.0 100.0 0.0
    CHANNELS 6 Xposition Yposition Zposition Zrotation Yrotation Xrotation
    JOINT Spine1
    {
      OFFSET -0.013727 5.003763 -0.053727
      CHANNELS 3 Zrotation Yrotation Xrotation
      JOINT Spine2
      {
        OFFSET -0.0 7.125301 -0.029825
        CHANNELS 3 Zrotation Yrotation Xrotation
        JOINT Chest
        {
          OFFSET -1e-06 7.550063 -0.815971
          CHANNELS 3 Zrotation Yrotation Xrotation
          JOINT Neck1
          {
            OFFSET -0.181677 26.311295 -0.553348
            CHANNELS 3 Zrotation Yrotation Xrotation
            JOINT Neck2
            {
              OFFSET -3e-06 7.709397 2.302585
              CHANNELS 3 Zrotation Yrotation Xrotation
              JOINT Head
              {
                OFFSET -5e-06 6.128916 1.953709
                CHANNELS 3 Zrotation Yrotation Xrotation
                JOINT HeadEnd
                {
                  OFFSET 0.003598 16.065403 -1.835379
                  CHANNELS 3 Zrotation Yrotation Xrotation
                }
                JOINT Jaw
                {
                  OFFSET 0.002637 0.475592 3.094941
                  CHANNELS 3 Zrotation Yrotation Xrotation
                }
                JOINT LeftEye
                {
                  OFFSET 3.206381 5.380205 7.586883
                  CHANNELS 3 Zrotation Yrotation Xrotation
                }
                JOINT RightEye
                {
                  OFFSET -3.22244 5.361869 7.558234
                  CHANNELS 3 Zrotation Yrotation Xrotation
                }
              }
            }
          }
          JOINT LeftShoulder
          {
            OFFSET 1.621652 23.237164 5.113413
            CHANNELS 3 Zrotation Yrotation Xrotation
            JOINT LeftArm
            {
              OFFSET 14.919846 2e-06 -5.502326
              CHANNELS 3 Zrotation Yrotation Xrotation
              JOINT LeftForeArm
              {
                OFFSET 28.739307 0.0 -0.002588
                CHANNELS 3 Zrotation Yrotation Xrotation
                JOINT LeftHand
                {
                  OFFSET 27.093981 -1e-06 0.002609
                  CHANNELS 3 Zrotation Yrotation Xrotation
                  JOINT LeftHandThumb1
                  {
                    OFFSET 2.276482 -1.392045 3.191413
                    CHANNELS 3 Zrotation Yrotation Xrotation
                    JOINT LeftHandThumb2
                    {
                      OFFSET 4.012836 -1.828127 1.641654
                      CHANNELS 3 Zrotation Yrotation Xrotation
                      JOINT LeftHandThumb3
                      {
                        OFFSET 2.798515 0.0 -3e-06
                        CHANNELS 3 Zrotation Yrotation Xrotation
                        JOINT LeftHandThumbEnd
                        {
                          OFFSET 3.180793 -4e-06 4e-06
                          CHANNELS 3 Zrotation Yrotation Xrotation
                        }
                      }
                    }
                  }
                  JOINT LeftHandIndex1
                  {
                    OFFSET 3.247555 -0.531998 2.296169
                    CHANNELS 3 Zrotation Yrotation Xrotation
                    JOINT LeftHandIndex2
                    {
                      OFFSET 6.364578 0.01206 0.1786
                      CHANNELS 3 Zrotation Yrotation Xrotation
                      JOINT LeftHandIndex3
                      {
                        OFFSET 3.662364 0.0 0.0
                        CHANNELS 3 Zrotation Yrotation Xrotation
                        JOINT LeftHandIndex4
                        {
                          OFFSET 2.329242 4e-06 4e-06
                          CHANNELS 3 Zrotation Yrotation Xrotation
                          JOINT LeftHandIndexEnd
                          {
                            OFFSET 2.759615 -0.180537 -0.113024
                            CHANNELS 3 Zrotation Yrotation Xrotation
                          }
                        }
                      }
                    }
                  }
                  JOINT LeftHandMiddle1
                  {
                    OFFSET 3.163495 0.240981 1.000332
                    CHANNELS 3 Zrotation Yrotation Xrotation
                    JOINT LeftHandMiddle2
                    {
                      OFFSET 6.19078 -0.259278 -1.002548
                      CHANNELS 3 Zrotation Yrotation Xrotation
                      JOINT LeftHandMiddle3
                      {
                        OFFSET 4.35652 -4e-06 -1e-06
                        CHANNELS 3 Zrotation Yrotation Xrotation
                        JOINT LeftHandMiddle4
                        {
                          OFFSET 2.996877 -8e-06 0.0
                          CHANNELS 3 Zrotation Yrotation Xrotation
                          JOINT LeftHandMiddleEnd
                          {
                            OFFSET 2.304287 -0.294569 -0.031741
                            CHANNELS 3 Zrotation Yrotation Xrotation
                          }
                        }
                      }
                    }
                  }
                  JOINT LeftHandRing1
                  {
                    OFFSET 2.882643 -0.053652 -0.322543
                    CHANNELS 3 Zrotation Yrotation Xrotation
                    JOINT LeftHandRing2
                    {
                      OFFSET 5.854541 -0.486202 -1.373841
                      CHANNELS 3 Zrotation Yrotation Xrotation
                      JOINT LeftHandRing3
                      {
                        OFFSET 4.350578 0.0 3e-06
                        CHANNELS 3 Zrotation Yrotation Xrotation
                        JOINT LeftHandRing4
                        {
                          OFFSET 2.651321 7e-06 2e-06
                          CHANNELS 3 Zrotation Yrotation Xrotation
                          JOINT LeftHandRingEnd
                          {
                            OFFSET 1.936105 0.077687 -7.1e-05
                            CHANNELS 3 Zrotation Yrotation Xrotation
                          }
                        }
                      }
                    }
                  }
                  JOINT LeftHandPinky1
                  {
                    OFFSET 2.8655 -0.310005 -1.600378
                    CHANNELS 3 Zrotation Yrotation Xrotation
                    JOINT LeftHandPinky2
                    {
                      OFFSET 5.087849 -1.331141 -1.77123
                      CHANNELS 3 Zrotation Yrotation Xrotation
                      JOINT LeftHandPinky3
                      {
                        OFFSET 3.070974 4e-06 0.0
                        CHANNELS 3 Zrotation Yrotation Xrotation
                        JOINT LeftHandPinky4
                        {
                          OFFSET 1.549672 0.0 1e-06
                          CHANNELS 3 Zrotation Yrotation Xrotation
                          JOINT LeftHandPinkyEnd
                          {
                            OFFSET 1.944893 -0.157802 0.057219
                            CHANNELS 3 Zrotation Yrotation Xrotation
                          }
                        }
                      }
                    }
                  }
                }
              }
            }
          }
          JOINT RightShoulder
          {
            OFFSET -1.380118 23.180309 5.214158
            CHANNELS 3 Zrotation Yrotation Xrotation
            JOINT RightArm
            {
              OFFSET -15.037196 1.2e-05 -5.545604
              CHANNELS 3 Zrotation Yrotation Xrotation
              JOINT RightForeArm
              {
                OFFSET -28.736639 2e-06 -0.002597
                CHANNELS 3 Zrotation Yrotation Xrotation
                JOINT RightHand
                {
                  OFFSET -27.133619 -0.0 0.002613
                  CHANNELS 3 Zrotation Yrotation Xrotation
                  JOINT RightHandThumb1
                  {
                    OFFSET -2.274032 -1.383988 3.163127
                    CHANNELS 3 Zrotation Yrotation Xrotation
                    JOINT RightHandThumb2
                    {
                      OFFSET -4.011429 -1.827466 1.640914
                      CHANNELS 3 Zrotation Yrotation Xrotation
                      JOINT RightHandThumb3
                      {
                        OFFSET -2.794935 -4e-06 -3e-06
                        CHANNELS 3 Zrotation Yrotation Xrotation
                        JOINT RightHandThumbEnd
                        {
                          OFFSET -3.183852 4e-06 1e-06
                          CHANNELS 3 Zrotation Yrotation Xrotation
                        }
                      }
                    }
                  }
                  JOINT RightHandIndex1
                  {
                    OFFSET -3.253266 -0.520057 2.282866
                    CHANNELS 3 Zrotation Yrotation Xrotation
                    JOINT RightHandIndex2
                    {
                      OFFSET -6.341917 0.012471 0.178266
                      CHANNELS 3 Zrotation Yrotation Xrotation
                      JOINT RightHandIndex3
                      {
                        OFFSET -3.654871 -8e-06 -0.0
                        CHANNELS 3 Zrotation Yrotation Xrotation
                        JOINT RightHandIndex4
                        {
                          OFFSET -2.327586 0.0 1e-06
                          CHANNELS 3 Zrotation Yrotation Xrotation
                          JOINT RightHandIndexEnd
                          {
                            OFFSET -2.76179 -0.180656 -0.113078
                            CHANNELS 3 Zrotation Yrotation Xrotation
                          }
                        }
                      }
                    }
                  }
                  JOINT RightHandMiddle1
                  {
                    OFFSET -3.168106 0.246593 1.00103
                    CHANNELS 3 Zrotation Yrotation Xrotation
                    JOINT RightHandMiddle2
                    {
                      OFFSET -6.180828 -0.258836 -1.000895
                      CHANNELS 3 Zrotation Yrotation Xrotation
                      JOINT RightHandMiddle3
                      {
                        OFFSET -4.348901 0.0 -0.0
                        CHANNELS 3 Zrotation Yrotation Xrotation
                        JOINT RightHandMiddle4
                        {
                          OFFSET -3.00024 -4e-06 -2e-06
                          CHANNELS 3 Zrotation Yrotation Xrotation
                          JOINT RightHandMiddleEnd
                          {
                            OFFSET -2.30252 -0.29437 -0.031706
                            CHANNELS 3 Zrotation Yrotation Xrotation
                          }
                        }
                      }
                    }
                  }
                  JOINT RightHandRing1
                  {
                    OFFSET -2.88569 -0.067952 -0.308858
                    CHANNELS 3 Zrotation Yrotation Xrotation
                    JOINT RightHandRing2
                    {
                      OFFSET -5.854198 -0.48613 -1.373731
                      CHANNELS 3 Zrotation Yrotation Xrotation
                      JOINT RightHandRing3
                      {
                        OFFSET -4.33881 -4e-06 -0.0
                        CHANNELS 3 Zrotation Yrotation Xrotation
                        JOINT RightHandRing4
                        {
                          OFFSET -2.654903 -4e-06 4e-06
                          CHANNELS 3 Zrotation Yrotation Xrotation
                          JOINT RightHandRingEnd
                          {
                            OFFSET -1.933568 0.077527 -5.2e-05
                            CHANNELS 3 Zrotation Yrotation Xrotation
                          }
                        }
                      }
                    }
                  }
                  JOINT RightHandPinky1
                  {
                    OFFSET -2.866425 -0.342796 -1.584145
                    CHANNELS 3 Zrotation Yrotation Xrotation
                    JOINT RightHandPinky2
                    {
                      OFFSET -5.091371 -1.332055 -1.772385
                      CHANNELS 3 Zrotation Yrotation Xrotation
                      JOINT RightHandPinky3
                      {
                        OFFSET -3.062664 -4e-06 1e-06
                        CHANNELS 3 Zrotation Yrotation Xrotation
                        JOINT RightHandPinky4
                        {
                          OFFSET -1.546529 4e-06 -2e-06
                          CHANNELS 3 Zrotation Yrotation Xrotation
                          JOINT RightHandPinkyEnd
                          {
                            OFFSET -1.945119 -0.157718 0.057211
                            CHANNELS 3 Zrotation Yrotation Xrotation
                          }
                        }
                      }
                    }
                  }
                }
              }
            }
          }
        }
      }
    }
    JOINT LeftLeg
    {
      OFFSET 10.043214 -8.434526 2.595655
      CHANNELS 3 Zrotation Yrotation Xrotation
      JOINT LeftShin
      {
        OFFSET -1e-06 -43.221752 -0.802913
        CHANNELS 3 Zrotation Yrotation Xrotation
        JOINT LeftFoot
        {
          OFFSET 1e-06 -42.155094 -3.481523
          CHANNELS 3 Zrotation Yrotation Xrotation
          JOINT LeftToeBase
          {
            OFFSET 0.0 -5.059472 13.231529
            CHANNELS 3 Zrotation Yrotation Xrotation
            JOINT LeftToeEnd
            {
              OFFSET -0.009607 -1.647619 6.513017
              CHANNELS 3 Zrotation Yrotation Xrotation
            }
          }
        }
      }
    }
    JOINT RightLeg
    {
      OFFSET -10.047278 -8.29526 2.620317
      CHANNELS 3 Zrotation Yrotation Xrotation
      JOINT RightShin
      {
        OFFSET 1e-06 -43.362206 -0.805556
        CHANNELS 3 Zrotation Yrotation Xrotation
        JOINT RightFoot
        {
          OFFSET 2e-06 -42.117393 -3.478398
          CHANNELS 3 Zrotation Yrotation Xrotation
          JOINT RightToeBase
          {
            OFFSET -0.0 -5.079609 13.284196
            CHANNELS 3 Zrotation Yrotation Xrotation
            JOINT RightToeEnd
            {
              OFFSET 0.009532 -1.634378 6.460591
              CHANNELS 3 Zrotation Yrotation Xrotation
            }
          }
        }
      }
    }
  }
}
MOTION
Frames: 4
Frame Time: 0.03333333333333333
0.0 0.0 0.0 0.0 -0.0 0.0 -88.539085 94.179901 622.460815 3.642316 -11.539721 -6.361944 -1.730967 0.574695 -0.988965 -0.656494 1.857905 -5.352845 -2.356797 0.860652 11.037898 2.11181 1.421594 5.736516 -0.131275 2.450486 -3.562453 0.59372 2.084369 -8.250033 7.7e-05 -2.2e-05 6e-06 -0.019009 -0.085865 0.017317 0.583658 -3.748868 -10.411039 -0.631653 3.577776 -10.450319 -15.984674 -3.497786 13.211211 -59.033085 -4.741144 20.110937 -0.045868 -17.117939 -0.024902 3.135113 -0.358851 -8.834375 -5.88211 9.861291 0.70259 -10.93688 -0.360575 7.156208 1e-06 8.774831 -1e-06 -16.300484 18.008327 5.550492 -1.844034 2.498507 -2.507279 -10.163608 4.678947 4.621109 -20.97604 -5e-06 2e-06 -21.226301 2.451698 -3.594 1e-06 -6e-06 -0.0 -1.362682 2.240799 -0.746324 -21.334929 0.584909 3.008325 -13.821223 -4e-06 2e-06 -23.887184 -0.249078 -0.839483 -60.578362 2.625674 -2.363356 -0.294025 1.679688 0.833258 -14.21822 0.093215 1.30058 -34.212078 -0.287565 0.967175 -20.03323 0.964537 1.212845 -0.0 0.0 -1e-06 -3.440391 0.788234 0.501656 -15.928196 -3.167311 2.999707 -6.338831 -2e-06 -1e-06 -18.123461 3.648185 -4.905673 -4e-06 -0.0 -3e-06 13.386093 13.36827 12.030764 65.597565 1.199325 -6.934412 -1.281711 34.100746 -0.550607 -4.255202 7.143066 7.494509 2.243543 -5.255038 -3.180157 14.282896 -0.826594 6.952502 -4e-06 -12.690609 1e-06 15.739285 -17.492754 2.569321 1.665668 -1.955924 -2.878301 4.727799 -4.170588 4.993925 11.020529 5e-06 -2e-06 12.109056 -3.735716 -2.866787 -0.0 -0.0 0.0 1.291986 -1.928549 -1.498089 14.800136 0.56747 3.865608 14.242579 -1.341734 -6.66066 19.631975 0.143931 -0.648245 49.720669 -0.459089 -5.852237 0.35303 -1.511151 -0.03194 20.222801 3.684314 2.316631 18.787279 8e-06 -1e-06 10.751629 -0.479866 1.397906 0.0 1e-06 0.0 3.273808 0.305948 -0.58011 21.486824 11.830383 2.266131 8.16293 2e-06 -1e-06 18.399088 -3.798985 -4.940577 3e-06 1e-06 0.0 -8.236839 5.485111 -23.534842 0.235754 0.293626 22.953259 7.055278 7.541835 6.854549 1.783915 -1.920465 -3.622784 0.0 -0.0 2e-06 -10.148149 -10.440148 22.786831 -0.178422 0.92233 34.398964 6.539159 3.320206 5.131868 -1.523714 0.775793 -28.113554 0.0 0.0 -1e-06 
0.0 0.0 0.0 0.0 -0.0 0.0 -88.537209 95.187172 627.046448 4.286457 -11.902321 -6.441391 -2.066231 0.538631 -1.071822 -0.683391 1.731159 -5.385293 -2.690223 0.600223 10.813501 2.194975 1.32767 5.318915 -0.155683 3.077099 -3.658377 0.64798 2.462731 -7.589276 7.7e-05 -2.2e-05 6e-06 0.00554 0.02811 -0.013122 0.615178 -3.627746 -10.389846 -0.611964 3.682796 -10.461061 -16.041737 -4.200827 13.137927 -59.117405 -4.933743 16.251625 -0.524983 -16.910975 0.026377 6.329505 0.921071 -10.473293 -5.882109 9.861287 0.702591 -10.936875 -0.360573 7.156208 -0.0 8.774826 -1e-06 -16.11376 18.289555 5.567331 -1.844034 2.498504 -2.507279 -10.163603 4.678947 4.621109 -20.976028 -2e-06 3e-06 -21.226295 2.451697 -3.594003 -1e-06 -7e-06 -2e-06 -1.362683 2.240798 -0.746324 -21.334923 0.584911 3.008324 -13.82122 -2e-06 2e-06 -23.887182 -0.249079 -0.839484 -60.041607 2.637519 -2.811629 -0.294026 1.679688 0.833257 -14.218214 0.093216 1.30058 -34.212067 -0.287563 0.967168 -20.033222 0.964537 1.212841 1e-06 1e-06 -1e-06 -3.44039 0.788235 0.501656 -15.928192 -3.167309 2.999707 -6.338829 -1e-06 1e-06 -18.123455 3.648184 -4.905674 -3e-06 -1e-06 -3e-06 14.152092 13.06989 12.028691 66.198784 -0.034932 -7.445693 -1.203447 31.968506 -0.40085 -5.199231 6.522508 8.246792 2.243542 -5.255037 -3.180158 14.282894 -0.826597 6.952504 -1e-06 -12.690609 2e-06 15.87155 -17.531136 2.450949 1.665666 -1.955922 -2.878299 4.7278 -4.170589 4.993925 11.020526 2e-06 0.0 12.109053 -3.735717 -2.866784 0.0 -0.0 -1e-06 1.291986 -1.928549 -1.498089 14.800129 0.567467 3.865608 14.242571 -1.341737 -6.660657 19.631968 0.143925 -0.648245 49.846409 -0.364145 -6.059381 0.353029 -1.511153 -0.031939 20.22279 3.684307 2.316629 18.787273 3e-06 -0.0 10.751629 -0.479869 1.397908 1e-06 1e-06 0.0 3.273808 0.305948 -0.580111 21.486813 11.830376 2.266133 8.16293 0.0 1e-06 18.399086 -3.798986 -4.940576 3e-06 -1e-06 -1e-06 -9.08166 4.727773 -20.069553 0.294058 0.310567 22.28231 8.362872 8.240374 5.401153 1.769388 -1.85586 -3.941017 0.0 -0.0 2e-06 -10.301554 -8.393338 17.563553 -0.061499 1.193762 44.261127 9.753793 1.558005 11.925144 -1.614622 0.888102 -24.42391 0.0 -0.0 -3e-06 
0.0 0.0 0.0 0.0 -0.0 0.0 -88.338089 96.222321 631.307129 4.679486 -12.075442 -6.377555 -2.528995 0.43661 -0.940356 -0.723665 1.374558 -5.364399 -2.773601 -0.072763 10.527716 2.504158 1.306317 4.608347 0.07038 4.022965 -3.695756 0.638036 3.255816 -7.310616 7.7e-05 -2.3e-05 6e-06 0.028089 0.170537 -0.029946 0.663433 -3.48385 -10.408961 -0.612968 3.821847 -10.489883 -15.324255 -4.988655 13.002959 -59.238033 -4.838026 13.418701 -0.683893 -17.707005 -0.005977 7.604993 1.551104 -10.630826 -5.882112 9.861292 0.70259 -10.936881 -0.360576 7.15621 1e-06 8.774831 -3e-06 -16.042969 18.323523 5.715224 -1.844034 2.498506 -2.50728 -10.16361 4.678947 4.621111 -20.976044 -4e-06 4e-06 -21.226305 2.451698 -3.594003 0.0 -6e-06 -1e-06 -1.362682 2.240798 -0.746323 -21.334936 0.584909 3.008324 -13.821229 -4e-06 3e-06 -23.887194 -0.24908 -0.839483 -60.069874 2.581624 -2.720436 -0.294025 1.679688 0.833255 -14.218223 0.093214 1.300581 -34.212086 -0.287566 0.967172 -20.033232 0.964536 1.212845 0.0 2e-06 -0.0 -3.440392 0.788234 0.501657 -15.928203 -3.167312 2.999707 -6.338833 -1e-06 1e-06 -18.123463 3.648184 -4.905674 -4e-06 -1e-06 -3e-06 14.572638 12.645915 12.402632 66.641434 -0.856037 -7.358536 -0.906987 30.562 -0.334504 -6.267577 5.599038 8.212908 2.243542 -5.255039 -3.180158 14.282896 -0.826595 6.952505 -3e-06 -12.690609 2e-06 15.822413 -17.612263 2.567032 1.665668 -1.955922 -2.8783 4.727801 -4.170588 4.993925 11.020531 5e-06 -1e-06 12.109058 -3.735716 -2.866785 0.0 0.0 -0.0 1.291985 -1.92855 -1.498089 14.800132 0.567468 3.865608 14.242577 -1.341736 -6.660661 19.631973 0.143927 -0.648245 49.793285 -0.473746 -6.005357 0.353029 -1.511151 -0.03194 20.222801 3.684312 2.316631 18.787283 6e-06 -1e-06 10.751632 -0.479868 1.397906 2e-06 1e-06 1e-06 3.273808 0.305948 -0.580111 21.486824 11.830379 2.266133 8.16293 1e-06 -0.0 18.39909 -3.798985 -4.940576 3e-06 0.0 -3e-06 -9.938565 4.551864 -15.953588 0.279728 0.331534 19.534412 8.476601 8.539919 4.712891 1.788117 -1.888154 -3.927866 0.0 0.0 2e-06 -9.024549 -5.717902 10.786076 0.14165 1.381812 54.17794 12.628051 0.087529 17.410261 -1.406185 1.04294 -10.410725 0.0 -0.0 -0.0 
0.0 0.0 0.0 0.0 -0.0 0.0 -88.027695 97.250198 635.030396 4.913924 -11.541285 -6.340893 -3.107253 0.243791 -0.782254 -0.818561 0.752524 -5.304855 -2.756735 -1.039963 10.510189 3.043893 1.237269 4.160858 0.270786 4.642337 -3.737652 0.7778 3.814317 -7.606333 7.7e-05 -2.3e-05 6e-06 0.041124 0.240478 -0.03076 0.68895 -3.416908 -10.459033 -0.610775 3.893344 -10.532819 -14.432577 -5.896497 12.980109 -58.65662 -4.916974 12.320792 -0.748991 -19.218267 -0.092738 7.189691 1.857045 -9.617777 -5.882108 9.861288 0.702591 -10.936875 -0.360574 7.156206 -0.0 8.774828 -1e-06 -15.990973 18.299475 5.858063 -1.844033 2.498505 -2.507279 -10.163604 4.678948 4.621112 -20.97603 -3e-06 3e-06 -21.226292 2.451698 -3.594 0.0 -5e-06 -0.0 -1.362683 2.2408 -0.746323 -21.334925 0.584909 3.008325 -13.82122 -3e-06 2e-06 -23.887182 -0.24908 -0.839484 -60.235794 2.685889 -2.525164 -0.294024 1.679687 0.833257 -14.218215 0.093216 1.300581 -34.212067 -0.287563 0.967171 -20.033226 0.964536 1.212843 1e-06 1e-06 1e-06 -3.440389 0.788234 0.501655 -15.928192 -3.16731 2.999709 -6.338828 -1e-06 0.0 -18.123451 3.648184 -4.905673 -5e-06 -1e-06 -2e-06 15.115762 11.648939 12.786278 66.259827 -1.734675 -5.71555 -0.653745 30.075197 -0.296003 -6.869008 5.284316 6.754875 2.243543 -5.255038 -3.180158 14.282896 -0.826595 6.952503 -2e-06 -12.690609 0.0 15.785582 -17.738075 2.706345 1.665667 -1.955922 -2.878299 4.7278 -4.170589 4.993925 11.020529 2e-06 -1e-06 12.109056 -3.735718 -2.866785 -0.0 -0.0 -1e-06 1.291986 -1.928551 -1.498089 14.800132 0.567468 3.865608 14.242577 -1.341736 -6.660659 19.631973 0.143925 -0.648245 49.805637 -0.640318 -6.042133 0.353028 -1.511152 -0.031939 20.222799 3.684309 2.31663 18.787279 4e-06 -2e-06 10.751631 -0.47987 1.397906 -0.0 0.0 0.0 3.273808 0.305948 -0.580111 21.486822 11.83038 2.266132 8.16293 2e-06 -1e-06 18.399088 -3.798985 -4.940578 3e-06 -1e-06 -1e-06 -10.781592 4.430084 -10.853042 0.230653 0.328501 14.178369 7.550622 8.338665 5.328095 1.786186 -1.913748 -3.420648 0.0 -0.0 2e-06 -7.267714 -3.665544 3.982208 0.356288 1.481658 62.215202 12.840062 0.381916 14.921494 -1.389566 1.148174 -5.139868 0.0 -0.0 0.0 
